<svg xmlns="http://www.w3.org/2000/svg" width="31.968" height="31.968" viewBox="0 0 1080 1080">
  <defs>
    <style>
      .cls-1 {
        fill: #164e63;
      }

      .cls-1, .cls-2 {
        fill-rule: evenodd;
      }

      .cls-2 {
        fill: none;
        stroke: #164e63;
        stroke-linecap: round;
        stroke-linejoin: round;
        stroke-width: 148px;
      }
    </style>
  </defs>
  <path id="G" class="cls-1" d="M785,416.284q-26.658-102.8-108.983-160.857T473.758,197.366q-99,0-176.086,43.308Q220.575,284,177.267,361.555q-43.322,77.587-43.307,176.561,0,99,43.307,176.086,43.3,77.1,120.881,120.4,77.565,43.323,176.562,43.308,83.745,0,150.387-32.362,66.612-32.347,109.934-84.712,43.3-52.335,61.393-113.266V496.237H442.348V616.165H648.892q-19.052,57.11-60.44,87.567-41.4,30.474-101.369,30.459-87.582,0-137.537-51.874-49.971-51.867-49.97-144.2,0-86.6,47.59-138.489,47.584-51.865,126.592-51.874,45.687,0,79.477,17.609a121.907,121.907,0,0,1,51.874,50.922H785Z"/>
  <path class="cls-2" d="M479.406,80.609c253.818,0,459.579,205.9,459.579,459.891s-205.761,459.89-459.579,459.89"/>
</svg>
